<svg id="visual" viewBox="0 0 960 540" width="960" height="540" xmlns="http://www.w3.org/2000/svg" xmlns:xlink="http://www.w3.org/1999/xlink" version="1.1"><rect x="0" y="0" width="960" height="540" fill="#000000"></rect><g fill="#F7770F"><circle r="51" cx="563" cy="80"></circle><circle r="4" cx="649" cy="409"></circle><circle r="40" cx="60" cy="243"></circle><circle r="12" cx="433" cy="191"></circle><circle r="15" cx="328" cy="348"></circle><circle r="45" cx="163" cy="220"></circle><circle r="31" cx="848" cy="304"></circle><circle r="15" cx="301" cy="70"></circle><circle r="8" cx="690" cy="275"></circle><circle r="28" cx="479" cy="393"></circle><circle r="26" cx="76" cy="482"></circle><circle r="16" cx="902" cy="190"></circle><circle r="16" cx="891" cy="79"></circle><circle r="10" cx="411" cy="490"></circle><circle r="17" cx="173" cy="106"></circle><circle r="23" cx="660" cy="169"></circle><circle r="31" cx="747" cy="86"></circle><circle r="20" cx="296" cy="239"></circle><circle r="40" cx="859" cy="451"></circle><circle r="18" cx="266" cy="455"></circle><circle r="11" cx="559" cy="463"></circle><circle r="24" cx="180" cy="397"></circle><circle r="17" cx="527" cy="292"></circle><circle r="48" cx="757" cy="354"></circle><circle r="38" cx="438" cy="51"></circle><circle r="19" cx="424" cy="292"></circle><circle r="45" cx="53" cy="56"></circle><circle r="7" cx="741" cy="461"></circle><circle r="10" cx="84" cy="353"></circle><circle r="32" cx="786" cy="194"></circle><circle r="20" cx="549" cy="183"></circle></g></svg>