<svg id="visual" viewBox="0 0 960 540" width="960" height="540" xmlns="http://www.w3.org/2000/svg" xmlns:xlink="http://www.w3.org/1999/xlink" version="1.1"><path d="M0 163L14.5 167.5C29 172 58 181 87.2 167.5C116.3 154 145.7 118 174.8 118C204 118 233 154 262 155.8C291 157.7 320 125.3 349 113.7C378 102 407 111 436.2 117.3C465.3 123.7 494.7 127.3 523.8 139.8C553 152.3 582 173.7 611 179C640 184.3 669 173.7 698 161.2C727 148.7 756 134.3 785.2 130.7C814.3 127 843.7 134 872.8 131.3C902 128.7 931 116.3 945.5 110.2L960 104L960 0L945.5 0C931 0 902 0 872.8 0C843.7 0 814.3 0 785.2 0C756 0 727 0 698 0C669 0 640 0 611 0C582 0 553 0 523.8 0C494.7 0 465.3 0 436.2 0C407 0 378 0 349 0C320 0 291 0 262 0C233 0 204 0 174.8 0C145.7 0 116.3 0 87.2 0C58 0 29 0 14.5 0L0 0Z" fill="#ff7300"></path><path d="M0 239L14.5 252.5C29 266 58 293 87.2 277.7C116.3 262.3 145.7 204.7 174.8 206.3C204 208 233 269 262 285.2C291 301.3 320 272.7 349 259.2C378 245.7 407 247.3 436.2 249.2C465.3 251 494.7 253 523.8 268.3C553 283.7 582 312.3 611 305.2C640 298 669 255 698 230.7C727 206.3 756 200.7 785.2 211.3C814.3 222 843.7 249 872.8 242.8C902 236.7 931 197.3 945.5 177.7L960 158L960 102L945.5 108.2C931 114.3 902 126.7 872.8 129.3C843.7 132 814.3 125 785.2 128.7C756 132.3 727 146.7 698 159.2C669 171.7 640 182.3 611 177C582 171.7 553 150.3 523.8 137.8C494.7 125.3 465.3 121.7 436.2 115.3C407 109 378 100 349 111.7C320 123.3 291 155.7 262 153.8C233 152 204 116 174.8 116C145.7 116 116.3 152 87.2 165.5C58 179 29 170 14.5 165.5L0 161Z" fill="#cc4602"></path><path d="M0 422L14.5 418.5C29 415 58 408 87.2 399C116.3 390 145.7 379 174.8 383.5C204 388 233 408 262 420.7C291 433.3 320 438.7 349 433.2C378 427.7 407 411.3 436.2 409.5C465.3 407.7 494.7 420.3 523.8 424C553 427.7 582 422.3 611 412.5C640 402.7 669 388.3 698 383.8C727 379.3 756 384.7 785.2 391.8C814.3 399 843.7 408 872.8 413.3C902 418.7 931 420.3 945.5 421.2L960 422L960 156L945.5 175.7C931 195.3 902 234.7 872.8 240.8C843.7 247 814.3 220 785.2 209.3C756 198.7 727 204.3 698 228.7C669 253 640 296 611 303.2C582 310.3 553 281.7 523.8 266.3C494.7 251 465.3 249 436.2 247.2C407 245.3 378 243.7 349 257.2C320 270.7 291 299.3 262 283.2C233 267 204 206 174.8 204.3C145.7 202.7 116.3 260.3 87.2 275.7C58 291 29 264 14.5 250.5L0 237Z" fill="#981800"></path><path d="M0 503L14.5 492.2C29 481.3 58 459.7 87.2 448C116.3 436.3 145.7 434.7 174.8 440.2C204 445.7 233 458.3 262 466.5C291 474.7 320 478.3 349 471.2C378 464 407 446 436.2 446C465.3 446 494.7 464 523.8 469.3C553 474.7 582 467.3 611 461.8C640 456.3 669 452.7 698 449C727 445.3 756 441.7 785.2 444.3C814.3 447 843.7 456 872.8 458.8C902 461.7 931 458.3 945.5 456.7L960 455L960 420L945.5 419.2C931 418.3 902 416.7 872.8 411.3C843.7 406 814.3 397 785.2 389.8C756 382.7 727 377.3 698 381.8C669 386.3 640 400.7 611 410.5C582 420.3 553 425.7 523.8 422C494.7 418.3 465.3 405.7 436.2 407.5C407 409.3 378 425.7 349 431.2C320 436.7 291 431.3 262 418.7C233 406 204 386 174.8 381.5C145.7 377 116.3 388 87.2 397C58 406 29 413 14.5 416.5L0 420Z" fill="#690000"></path><path d="M0 541L14.5 541C29 541 58 541 87.2 541C116.3 541 145.7 541 174.8 541C204 541 233 541 262 541C291 541 320 541 349 541C378 541 407 541 436.2 541C465.3 541 494.7 541 523.8 541C553 541 582 541 611 541C640 541 669 541 698 541C727 541 756 541 785.2 541C814.3 541 843.7 541 872.8 541C902 541 931 541 945.5 541L960 541L960 453L945.5 454.7C931 456.3 902 459.7 872.8 456.8C843.7 454 814.3 445 785.2 442.3C756 439.7 727 443.3 698 447C669 450.7 640 454.3 611 459.8C582 465.3 553 472.7 523.8 467.3C494.7 462 465.3 444 436.2 444C407 444 378 462 349 469.2C320 476.3 291 472.7 262 464.5C233 456.3 204 443.7 174.8 438.2C145.7 432.7 116.3 434.3 87.2 446C58 457.7 29 479.3 14.5 490.2L0 501Z" fill="#000000"></path></svg>