<svg id="visual" viewBox="0 0 960 540" width="960" height="540" xmlns="http://www.w3.org/2000/svg" xmlns:xlink="http://www.w3.org/1999/xlink" version="1.1"><rect x="0" y="0" width="960" height="540" fill="#000000"></rect><path d="M0 403L7 408.2C14 413.3 28 423.7 41.8 419.8C55.7 416 69.3 398 83.2 392.2C97 386.3 111 392.7 125 397C139 401.3 153 403.7 167 399.8C181 396 195 386 208.8 386.2C222.7 386.3 236.3 396.7 250.2 405.8C264 415 278 423 292 420.7C306 418.3 320 405.7 334 402.2C348 398.7 362 404.3 375.8 410.5C389.7 416.7 403.3 423.3 417.2 424C431 424.7 445 419.3 459 413.8C473 408.3 487 402.7 501 402.8C515 403 529 409 542.8 405C556.7 401 570.3 387 584.2 383C598 379 612 385 626 393.2C640 401.3 654 411.7 668 413.8C682 416 696 410 709.8 410.5C723.7 411 737.3 418 751.2 413C765 408 779 391 793 388C807 385 821 396 835 404C849 412 863 417 876.8 415.7C890.7 414.3 904.3 406.7 918.2 404.5C932 402.3 946 405.7 953 407.3L960 409L960 541L953 541C946 541 932 541 918.2 541C904.3 541 890.7 541 876.8 541C863 541 849 541 835 541C821 541 807 541 793 541C779 541 765 541 751.2 541C737.3 541 723.7 541 709.8 541C696 541 682 541 668 541C654 541 640 541 626 541C612 541 598 541 584.2 541C570.3 541 556.7 541 542.8 541C529 541 515 541 501 541C487 541 473 541 459 541C445 541 431 541 417.2 541C403.3 541 389.7 541 375.8 541C362 541 348 541 334 541C320 541 306 541 292 541C278 541 264 541 250.2 541C236.3 541 222.7 541 208.8 541C195 541 181 541 167 541C153 541 139 541 125 541C111 541 97 541 83.2 541C69.3 541 55.7 541 41.8 541C28 541 14 541 7 541L0 541Z" fill="#f7770f"></path><path d="M0 389L7 391C14 393 28 397 41.8 400C55.7 403 69.3 405 83.2 409.3C97 413.7 111 420.3 125 418.5C139 416.7 153 406.3 167 401.3C181 396.3 195 396.7 208.8 397.7C222.7 398.7 236.3 400.3 250.2 406C264 411.7 278 421.3 292 423.8C306 426.3 320 421.7 334 422C348 422.3 362 427.7 375.8 424.2C389.7 420.7 403.3 408.3 417.2 402C431 395.7 445 395.3 459 400.5C473 405.7 487 416.3 501 419.8C515 423.3 529 419.7 542.8 414.8C556.7 410 570.3 404 584.2 400C598 396 612 394 626 392.8C640 391.7 654 391.3 668 399.8C682 408.3 696 425.7 709.8 428.3C723.7 431 737.3 419 751.2 412.7C765 406.3 779 405.7 793 407.3C807 409 821 413 835 410.3C849 407.7 863 398.3 876.8 394C890.7 389.7 904.3 390.3 918.2 396.3C932 402.3 946 413.7 953 419.3L960 425L960 541L953 541C946 541 932 541 918.2 541C904.3 541 890.7 541 876.8 541C863 541 849 541 835 541C821 541 807 541 793 541C779 541 765 541 751.2 541C737.3 541 723.7 541 709.8 541C696 541 682 541 668 541C654 541 640 541 626 541C612 541 598 541 584.2 541C570.3 541 556.7 541 542.8 541C529 541 515 541 501 541C487 541 473 541 459 541C445 541 431 541 417.2 541C403.3 541 389.7 541 375.8 541C362 541 348 541 334 541C320 541 306 541 292 541C278 541 264 541 250.2 541C236.3 541 222.7 541 208.8 541C195 541 181 541 167 541C153 541 139 541 125 541C111 541 97 541 83.2 541C69.3 541 55.7 541 41.8 541C28 541 14 541 7 541L0 541Z" fill="#f76d1f"></path><path d="M0 409L7 414.7C14 420.3 28 431.7 41.8 437.7C55.7 443.7 69.3 444.3 83.2 444.2C97 444 111 443 125 440.3C139 437.7 153 433.3 167 426.3C181 419.3 195 409.7 208.8 410.3C222.7 411 236.3 422 250.2 424C264 426 278 419 292 413.7C306 408.3 320 404.7 334 403C348 401.3 362 401.7 375.8 404.7C389.7 407.7 403.3 413.3 417.2 418C431 422.7 445 426.3 459 424.8C473 423.3 487 416.7 501 419.7C515 422.7 529 435.3 542.8 435.8C556.7 436.3 570.3 424.7 584.2 422.2C598 419.7 612 426.3 626 426.5C640 426.7 654 420.3 668 423.3C682 426.3 696 438.7 709.8 443.3C723.7 448 737.3 445 751.2 439.5C765 434 779 426 793 424.7C807 423.3 821 428.7 835 427.8C849 427 863 420 876.8 417.7C890.7 415.3 904.3 417.7 918.2 421.3C932 425 946 430 953 432.5L960 435L960 541L953 541C946 541 932 541 918.2 541C904.3 541 890.7 541 876.8 541C863 541 849 541 835 541C821 541 807 541 793 541C779 541 765 541 751.2 541C737.3 541 723.7 541 709.8 541C696 541 682 541 668 541C654 541 640 541 626 541C612 541 598 541 584.2 541C570.3 541 556.7 541 542.8 541C529 541 515 541 501 541C487 541 473 541 459 541C445 541 431 541 417.2 541C403.3 541 389.7 541 375.8 541C362 541 348 541 334 541C320 541 306 541 292 541C278 541 264 541 250.2 541C236.3 541 222.7 541 208.8 541C195 541 181 541 167 541C153 541 139 541 125 541C111 541 97 541 83.2 541C69.3 541 55.7 541 41.8 541C28 541 14 541 7 541L0 541Z" fill="#f6632a"></path><path d="M0 430L7 427.7C14 425.3 28 420.7 41.8 419C55.7 417.3 69.3 418.7 83.2 418.8C97 419 111 418 125 417C139 416 153 415 167 414.5C181 414 195 414 208.8 417.2C222.7 420.3 236.3 426.7 250.2 434.2C264 441.7 278 450.3 292 454.5C306 458.7 320 458.3 334 456.2C348 454 362 450 375.8 447.8C389.7 445.7 403.3 445.3 417.2 446.5C431 447.7 445 450.3 459 452.7C473 455 487 457 501 454.2C515 451.3 529 443.7 542.8 443.7C556.7 443.7 570.3 451.3 584.2 454.8C598 458.3 612 457.7 626 454.2C640 450.7 654 444.3 668 438.2C682 432 696 426 709.8 427.5C723.7 429 737.3 438 751.2 439.7C765 441.3 779 435.7 793 436C807 436.3 821 442.7 835 440C849 437.3 863 425.7 876.8 424.7C890.7 423.7 904.3 433.3 918.2 433.5C932 433.7 946 424.3 953 419.7L960 415L960 541L953 541C946 541 932 541 918.2 541C904.3 541 890.7 541 876.8 541C863 541 849 541 835 541C821 541 807 541 793 541C779 541 765 541 751.2 541C737.3 541 723.7 541 709.8 541C696 541 682 541 668 541C654 541 640 541 626 541C612 541 598 541 584.2 541C570.3 541 556.7 541 542.8 541C529 541 515 541 501 541C487 541 473 541 459 541C445 541 431 541 417.2 541C403.3 541 389.7 541 375.8 541C362 541 348 541 334 541C320 541 306 541 292 541C278 541 264 541 250.2 541C236.3 541 222.7 541 208.8 541C195 541 181 541 167 541C153 541 139 541 125 541C111 541 97 541 83.2 541C69.3 541 55.7 541 41.8 541C28 541 14 541 7 541L0 541Z" fill="#f45a33"></path><path d="M0 428L7 432.5C14 437 28 446 41.8 449.2C55.7 452.3 69.3 449.7 83.2 444.7C97 439.7 111 432.3 125 433C139 433.7 153 442.3 167 445.5C181 448.7 195 446.3 208.8 445.7C222.7 445 236.3 446 250.2 448.2C264 450.3 278 453.7 292 456C306 458.3 320 459.7 334 457.7C348 455.7 362 450.3 375.8 447.3C389.7 444.3 403.3 443.7 417.2 443.2C431 442.7 445 442.3 459 445.7C473 449 487 456 501 453.8C515 451.7 529 440.3 542.8 439.7C556.7 439 570.3 449 584.2 455.2C598 461.3 612 463.7 626 461.3C640 459 654 452 668 448.7C682 445.3 696 445.7 709.8 448.5C723.7 451.3 737.3 456.7 751.2 458.8C765 461 779 460 793 458.5C807 457 821 455 835 451.3C849 447.7 863 442.3 876.8 439.7C890.7 437 904.3 437 918.2 435.7C932 434.3 946 431.7 953 430.3L960 429L960 541L953 541C946 541 932 541 918.2 541C904.3 541 890.7 541 876.8 541C863 541 849 541 835 541C821 541 807 541 793 541C779 541 765 541 751.2 541C737.3 541 723.7 541 709.8 541C696 541 682 541 668 541C654 541 640 541 626 541C612 541 598 541 584.2 541C570.3 541 556.7 541 542.8 541C529 541 515 541 501 541C487 541 473 541 459 541C445 541 431 541 417.2 541C403.3 541 389.7 541 375.8 541C362 541 348 541 334 541C320 541 306 541 292 541C278 541 264 541 250.2 541C236.3 541 222.7 541 208.8 541C195 541 181 541 167 541C153 541 139 541 125 541C111 541 97 541 83.2 541C69.3 541 55.7 541 41.8 541C28 541 14 541 7 541L0 541Z" fill="#f2503c"></path><path d="M0 447L7 452C14 457 28 467 41.8 467.7C55.7 468.3 69.3 459.7 83.2 456.7C97 453.7 111 456.3 125 459.7C139 463 153 467 167 468.2C181 469.3 195 467.7 208.8 468.5C222.7 469.3 236.3 472.7 250.2 470C264 467.3 278 458.7 292 456.3C306 454 320 458 334 456.7C348 455.3 362 448.7 375.8 445.3C389.7 442 403.3 442 417.2 442C431 442 445 442 459 446.7C473 451.3 487 460.7 501 464.2C515 467.7 529 465.3 542.8 463.5C556.7 461.7 570.3 460.3 584.2 462C598 463.7 612 468.3 626 467.2C640 466 654 459 668 455.2C682 451.3 696 450.7 709.8 448.7C723.7 446.7 737.3 443.3 751.2 447.3C765 451.3 779 462.7 793 469C807 475.3 821 476.7 835 476.8C849 477 863 476 876.8 473C890.7 470 904.3 465 918.2 459.2C932 453.3 946 446.7 953 443.3L960 440L960 541L953 541C946 541 932 541 918.2 541C904.3 541 890.7 541 876.8 541C863 541 849 541 835 541C821 541 807 541 793 541C779 541 765 541 751.2 541C737.3 541 723.7 541 709.8 541C696 541 682 541 668 541C654 541 640 541 626 541C612 541 598 541 584.2 541C570.3 541 556.7 541 542.8 541C529 541 515 541 501 541C487 541 473 541 459 541C445 541 431 541 417.2 541C403.3 541 389.7 541 375.8 541C362 541 348 541 334 541C320 541 306 541 292 541C278 541 264 541 250.2 541C236.3 541 222.7 541 208.8 541C195 541 181 541 167 541C153 541 139 541 125 541C111 541 97 541 83.2 541C69.3 541 55.7 541 41.8 541C28 541 14 541 7 541L0 541Z" fill="#ee4743"></path><path d="M0 473L7 470.5C14 468 28 463 41.8 460.7C55.7 458.3 69.3 458.7 83.2 458.7C97 458.7 111 458.3 125 459.7C139 461 153 464 167 467.7C181 471.3 195 475.7 208.8 475.8C222.7 476 236.3 472 250.2 471C264 470 278 472 292 473.7C306 475.3 320 476.7 334 477.5C348 478.3 362 478.7 375.8 475.7C389.7 472.7 403.3 466.3 417.2 462.5C431 458.7 445 457.3 459 459.8C473 462.3 487 468.7 501 471.8C515 475 529 475 542.8 475.8C556.7 476.7 570.3 478.3 584.2 478.3C598 478.3 612 476.7 626 475.8C640 475 654 475 668 473.7C682 472.3 696 469.7 709.8 471.5C723.7 473.3 737.3 479.7 751.2 482.7C765 485.7 779 485.3 793 480.2C807 475 821 465 835 460.3C849 455.7 863 456.3 876.8 460.8C890.7 465.3 904.3 473.7 918.2 472.8C932 472 946 462 953 457L960 452L960 541L953 541C946 541 932 541 918.2 541C904.3 541 890.7 541 876.8 541C863 541 849 541 835 541C821 541 807 541 793 541C779 541 765 541 751.2 541C737.3 541 723.7 541 709.8 541C696 541 682 541 668 541C654 541 640 541 626 541C612 541 598 541 584.2 541C570.3 541 556.7 541 542.8 541C529 541 515 541 501 541C487 541 473 541 459 541C445 541 431 541 417.2 541C403.3 541 389.7 541 375.8 541C362 541 348 541 334 541C320 541 306 541 292 541C278 541 264 541 250.2 541C236.3 541 222.7 541 208.8 541C195 541 181 541 167 541C153 541 139 541 125 541C111 541 97 541 83.2 541C69.3 541 55.7 541 41.8 541C28 541 14 541 7 541L0 541Z" fill="#ea3f4b"></path><path d="M0 487L7 487.3C14 487.7 28 488.3 41.8 488.8C55.7 489.3 69.3 489.7 83.2 488.7C97 487.7 111 485.3 125 483C139 480.7 153 478.3 167 480.3C181 482.3 195 488.7 208.8 488.5C222.7 488.3 236.3 481.7 250.2 480.3C264 479 278 483 292 481.5C306 480 320 473 334 471.8C348 470.7 362 475.3 375.8 476.7C389.7 478 403.3 476 417.2 474.5C431 473 445 472 459 471.2C473 470.3 487 469.7 501 468.7C515 467.7 529 466.3 542.8 467.8C556.7 469.3 570.3 473.7 584.2 475.7C598 477.7 612 477.3 626 478C640 478.7 654 480.3 668 481.2C682 482 696 482 709.8 479.3C723.7 476.7 737.3 471.3 751.2 470.8C765 470.3 779 474.7 793 475.7C807 476.7 821 474.3 835 474.8C849 475.3 863 478.7 876.8 482.2C890.7 485.7 904.3 489.3 918.2 489.3C932 489.3 946 485.7 953 483.8L960 482L960 541L953 541C946 541 932 541 918.2 541C904.3 541 890.7 541 876.8 541C863 541 849 541 835 541C821 541 807 541 793 541C779 541 765 541 751.2 541C737.3 541 723.7 541 709.8 541C696 541 682 541 668 541C654 541 640 541 626 541C612 541 598 541 584.2 541C570.3 541 556.7 541 542.8 541C529 541 515 541 501 541C487 541 473 541 459 541C445 541 431 541 417.2 541C403.3 541 389.7 541 375.8 541C362 541 348 541 334 541C320 541 306 541 292 541C278 541 264 541 250.2 541C236.3 541 222.7 541 208.8 541C195 541 181 541 167 541C153 541 139 541 125 541C111 541 97 541 83.2 541C69.3 541 55.7 541 41.8 541C28 541 14 541 7 541L0 541Z" fill="#e43751"></path><path d="M0 484L7 483.5C14 483 28 482 41.8 482.3C55.7 482.7 69.3 484.3 83.2 484.5C97 484.7 111 483.3 125 485.2C139 487 153 492 167 493.2C181 494.3 195 491.7 208.8 488.7C222.7 485.7 236.3 482.3 250.2 484.5C264 486.7 278 494.3 292 493.8C306 493.3 320 484.7 334 483.5C348 482.3 362 488.7 375.8 489.5C389.7 490.3 403.3 485.7 417.2 483.3C431 481 445 481 459 480.7C473 480.3 487 479.7 501 481.8C515 484 529 489 542.8 491.5C556.7 494 570.3 494 584.2 494.3C598 494.7 612 495.3 626 493.8C640 492.3 654 488.7 668 486.5C682 484.3 696 483.7 709.8 483.2C723.7 482.7 737.3 482.3 751.2 485.7C765 489 779 496 793 497.5C807 499 821 495 835 494.7C849 494.3 863 497.7 876.8 497.7C890.7 497.7 904.3 494.3 918.2 490.5C932 486.7 946 482.3 953 480.2L960 478L960 541L953 541C946 541 932 541 918.2 541C904.3 541 890.7 541 876.8 541C863 541 849 541 835 541C821 541 807 541 793 541C779 541 765 541 751.2 541C737.3 541 723.7 541 709.8 541C696 541 682 541 668 541C654 541 640 541 626 541C612 541 598 541 584.2 541C570.3 541 556.7 541 542.8 541C529 541 515 541 501 541C487 541 473 541 459 541C445 541 431 541 417.2 541C403.3 541 389.7 541 375.8 541C362 541 348 541 334 541C320 541 306 541 292 541C278 541 264 541 250.2 541C236.3 541 222.7 541 208.8 541C195 541 181 541 167 541C153 541 139 541 125 541C111 541 97 541 83.2 541C69.3 541 55.7 541 41.8 541C28 541 14 541 7 541L0 541Z" fill="#de3058"></path><path d="M0 509L7 507C14 505 28 501 41.8 500C55.7 499 69.3 501 83.2 500.3C97 499.7 111 496.3 125 496C139 495.7 153 498.3 167 498.5C181 498.7 195 496.3 208.8 495.8C222.7 495.3 236.3 496.7 250.2 499.7C264 502.7 278 507.3 292 508.7C306 510 320 508 334 504.8C348 501.7 362 497.3 375.8 497.3C389.7 497.3 403.3 501.7 417.2 503.5C431 505.3 445 504.7 459 504C473 503.3 487 502.7 501 501C515 499.3 529 496.7 542.8 494.7C556.7 492.7 570.3 491.3 584.2 493.2C598 495 612 500 626 500.2C640 500.3 654 495.7 668 493.7C682 491.7 696 492.3 709.8 494.3C723.7 496.3 737.3 499.7 751.2 500.3C765 501 779 499 793 499.5C807 500 821 503 835 505C849 507 863 508 876.8 506.8C890.7 505.7 904.3 502.3 918.2 499.2C932 496 946 493 953 491.5L960 490L960 541L953 541C946 541 932 541 918.2 541C904.3 541 890.7 541 876.8 541C863 541 849 541 835 541C821 541 807 541 793 541C779 541 765 541 751.2 541C737.3 541 723.7 541 709.8 541C696 541 682 541 668 541C654 541 640 541 626 541C612 541 598 541 584.2 541C570.3 541 556.7 541 542.8 541C529 541 515 541 501 541C487 541 473 541 459 541C445 541 431 541 417.2 541C403.3 541 389.7 541 375.8 541C362 541 348 541 334 541C320 541 306 541 292 541C278 541 264 541 250.2 541C236.3 541 222.7 541 208.8 541C195 541 181 541 167 541C153 541 139 541 125 541C111 541 97 541 83.2 541C69.3 541 55.7 541 41.8 541C28 541 14 541 7 541L0 541Z" fill="#d72a5e"></path><path d="M0 510L7 511C14 512 28 514 41.8 515.5C55.7 517 69.3 518 83.2 518.5C97 519 111 519 125 519.2C139 519.3 153 519.7 167 517C181 514.3 195 508.7 208.8 507.8C222.7 507 236.3 511 250.2 511.8C264 512.7 278 510.3 292 509.8C306 509.3 320 510.7 334 511C348 511.3 362 510.7 375.8 511C389.7 511.3 403.3 512.7 417.2 513.8C431 515 445 516 459 515.2C473 514.3 487 511.7 501 511.5C515 511.3 529 513.7 542.8 513.2C556.7 512.7 570.3 509.3 584.2 507.8C598 506.3 612 506.7 626 508.2C640 509.7 654 512.3 668 511.7C682 511 696 507 709.8 506.8C723.7 506.7 737.3 510.3 751.2 511.2C765 512 779 510 793 510.8C807 511.7 821 515.3 835 516C849 516.7 863 514.3 876.8 514.5C890.7 514.7 904.3 517.3 918.2 517.8C932 518.3 946 516.7 953 515.8L960 515L960 541L953 541C946 541 932 541 918.2 541C904.3 541 890.7 541 876.8 541C863 541 849 541 835 541C821 541 807 541 793 541C779 541 765 541 751.2 541C737.3 541 723.7 541 709.8 541C696 541 682 541 668 541C654 541 640 541 626 541C612 541 598 541 584.2 541C570.3 541 556.7 541 542.8 541C529 541 515 541 501 541C487 541 473 541 459 541C445 541 431 541 417.2 541C403.3 541 389.7 541 375.8 541C362 541 348 541 334 541C320 541 306 541 292 541C278 541 264 541 250.2 541C236.3 541 222.7 541 208.8 541C195 541 181 541 167 541C153 541 139 541 125 541C111 541 97 541 83.2 541C69.3 541 55.7 541 41.8 541C28 541 14 541 7 541L0 541Z" fill="#cf2663"></path><path d="M0 527L7 527C14 527 28 527 41.8 526C55.7 525 69.3 523 83.2 523C97 523 111 525 125 524.5C139 524 153 521 167 521.2C181 521.3 195 524.7 208.8 526.5C222.7 528.3 236.3 528.7 250.2 527.2C264 525.7 278 522.3 292 521.2C306 520 320 521 334 522C348 523 362 524 375.8 523.2C389.7 522.3 403.3 519.7 417.2 519.3C431 519 445 521 459 521C473 521 487 519 501 517.8C515 516.7 529 516.3 542.8 517.3C556.7 518.3 570.3 520.7 584.2 521.3C598 522 612 521 626 520.3C640 519.7 654 519.3 668 520.5C682 521.7 696 524.3 709.8 525.7C723.7 527 737.3 527 751.2 526C765 525 779 523 793 521.8C807 520.7 821 520.3 835 521.2C849 522 863 524 876.8 523.8C890.7 523.7 904.3 521.3 918.2 520.2C932 519 946 519 953 519L960 519L960 541L953 541C946 541 932 541 918.2 541C904.3 541 890.7 541 876.8 541C863 541 849 541 835 541C821 541 807 541 793 541C779 541 765 541 751.2 541C737.3 541 723.7 541 709.8 541C696 541 682 541 668 541C654 541 640 541 626 541C612 541 598 541 584.2 541C570.3 541 556.7 541 542.8 541C529 541 515 541 501 541C487 541 473 541 459 541C445 541 431 541 417.2 541C403.3 541 389.7 541 375.8 541C362 541 348 541 334 541C320 541 306 541 292 541C278 541 264 541 250.2 541C236.3 541 222.7 541 208.8 541C195 541 181 541 167 541C153 541 139 541 125 541C111 541 97 541 83.2 541C69.3 541 55.7 541 41.8 541C28 541 14 541 7 541L0 541Z" fill="#c62368"></path></svg>