<svg id="visual" viewBox="0 0 960 150" width="960" height="150" xmlns="http://www.w3.org/2000/svg" xmlns:xlink="http://www.w3.org/1999/xlink" version="1.1"><rect x="0" y="0" width="960" height="150" fill="#000000"></rect><path d="M0 84L7 80.8C14 77.7 28 71.3 41.8 73.7C55.7 76 69.3 87 83.2 90.5C97 94 111 90 125 87.3C139 84.7 153 83.3 167 85.8C181 88.3 195 94.7 208.8 94.7C222.7 94.7 236.3 88.3 250.2 82.7C264 77 278 72 292 73.3C306 74.7 320 82.3 334 84.3C348 86.3 362 82.7 375.8 78.8C389.7 75 403.3 71 417.2 70.7C431 70.3 445 73.7 459 77.2C473 80.7 487 84.3 501 84.3C515 84.3 529 80.7 542.8 83.2C556.7 85.7 570.3 94.3 584.2 96.8C598 99.3 612 95.7 626 90.5C640 85.3 654 78.7 668 77.3C682 76 696 80 709.8 79.7C723.7 79.3 737.3 74.7 751.2 77.7C765 80.7 779 91.3 793 93.3C807 95.3 821 88.7 835 83.7C849 78.7 863 75.3 876.8 76C890.7 76.7 904.3 81.3 918.2 82.8C932 84.3 946 82.7 953 81.8L960 81L960 0L953 0C946 0 932 0 918.2 0C904.3 0 890.7 0 876.8 0C863 0 849 0 835 0C821 0 807 0 793 0C779 0 765 0 751.2 0C737.3 0 723.7 0 709.8 0C696 0 682 0 668 0C654 0 640 0 626 0C612 0 598 0 584.2 0C570.3 0 556.7 0 542.8 0C529 0 515 0 501 0C487 0 473 0 459 0C445 0 431 0 417.2 0C403.3 0 389.7 0 375.8 0C362 0 348 0 334 0C320 0 306 0 292 0C278 0 264 0 250.2 0C236.3 0 222.7 0 208.8 0C195 0 181 0 167 0C153 0 139 0 125 0C111 0 97 0 83.2 0C69.3 0 55.7 0 41.8 0C28 0 14 0 7 0L0 0Z" fill="#f7770f"></path><path d="M0 92L7 90.8C14 89.7 28 87.3 41.8 85.5C55.7 83.7 69.3 82.3 83.2 79.7C97 77 111 73 125 74.2C139 75.3 153 81.7 167 84.8C181 88 195 88 208.8 87.5C222.7 87 236.3 86 250.2 82.3C264 78.7 278 72.3 292 70.7C306 69 320 72 334 71.8C348 71.7 362 68.3 375.8 70.5C389.7 72.7 403.3 80.3 417.2 84.3C431 88.3 445 88.7 459 85.5C473 82.3 487 75.7 501 73.5C515 71.3 529 73.7 542.8 76.7C556.7 79.7 570.3 83.3 584.2 85.8C598 88.3 612 89.7 626 90.3C640 91 654 91 668 85.7C682 80.3 696 69.7 709.8 68C723.7 66.3 737.3 73.7 751.2 77.7C765 81.7 779 82.3 793 81.3C807 80.3 821 77.7 835 79.2C849 80.7 863 86.3 876.8 89.2C890.7 92 904.3 92 918.2 88.3C932 84.7 946 77.3 953 73.7L960 70L960 0L953 0C946 0 932 0 918.2 0C904.3 0 890.7 0 876.8 0C863 0 849 0 835 0C821 0 807 0 793 0C779 0 765 0 751.2 0C737.3 0 723.7 0 709.8 0C696 0 682 0 668 0C654 0 640 0 626 0C612 0 598 0 584.2 0C570.3 0 556.7 0 542.8 0C529 0 515 0 501 0C487 0 473 0 459 0C445 0 431 0 417.2 0C403.3 0 389.7 0 375.8 0C362 0 348 0 334 0C320 0 306 0 292 0C278 0 264 0 250.2 0C236.3 0 222.7 0 208.8 0C195 0 181 0 167 0C153 0 139 0 125 0C111 0 97 0 83.2 0C69.3 0 55.7 0 41.8 0C28 0 14 0 7 0L0 0Z" fill="#f76d1f"></path><path d="M0 80L7 76.5C14 73 28 66 41.8 62.3C55.7 58.7 69.3 58.3 83.2 58.5C97 58.7 111 59.3 125 61C139 62.7 153 65.3 167 69.7C181 74 195 80 208.8 79.7C222.7 79.3 236.3 72.7 250.2 71.5C264 70.3 278 74.7 292 77.8C306 81 320 83 334 84C348 85 362 85 375.8 83.2C389.7 81.3 403.3 77.7 417.2 74.7C431 71.7 445 69.3 459 70.3C473 71.3 487 75.7 501 73.8C515 72 529 64 542.8 63.7C556.7 63.3 570.3 70.7 584.2 72.2C598 73.7 612 69.3 626 69.2C640 69 654 73 668 71.2C682 69.3 696 61.7 709.8 58.8C723.7 56 737.3 58 751.2 61.3C765 64.7 779 69.3 793 70.2C807 71 821 68 835 68.7C849 69.3 863 73.7 876.8 75.2C890.7 76.7 904.3 75.3 918.2 73C932 70.7 946 67.3 953 65.7L960 64L960 0L953 0C946 0 932 0 918.2 0C904.3 0 890.7 0 876.8 0C863 0 849 0 835 0C821 0 807 0 793 0C779 0 765 0 751.2 0C737.3 0 723.7 0 709.8 0C696 0 682 0 668 0C654 0 640 0 626 0C612 0 598 0 584.2 0C570.3 0 556.7 0 542.8 0C529 0 515 0 501 0C487 0 473 0 459 0C445 0 431 0 417.2 0C403.3 0 389.7 0 375.8 0C362 0 348 0 334 0C320 0 306 0 292 0C278 0 264 0 250.2 0C236.3 0 222.7 0 208.8 0C195 0 181 0 167 0C153 0 139 0 125 0C111 0 97 0 83.2 0C69.3 0 55.7 0 41.8 0C28 0 14 0 7 0L0 0Z" fill="#f6632a"></path><path d="M0 67L7 68.5C14 70 28 73 41.8 74.2C55.7 75.3 69.3 74.7 83.2 74.5C97 74.3 111 74.7 125 75.2C139 75.7 153 76.3 167 76.7C181 77 195 77 208.8 75C222.7 73 236.3 69 250.2 64.3C264 59.7 278 54.3 292 51.8C306 49.3 320 49.7 334 51C348 52.3 362 54.7 375.8 56C389.7 57.3 403.3 57.7 417.2 57C431 56.3 445 54.7 459 53.2C473 51.7 487 50.3 501 52C515 53.7 529 58.3 542.8 58.3C556.7 58.3 570.3 53.7 584.2 51.5C598 49.3 612 49.7 626 51.8C640 54 654 58 668 62C682 66 696 70 709.8 69.2C723.7 68.3 737.3 62.7 751.2 61.5C765 60.3 779 63.7 793 63.3C807 63 821 59 835 60.7C849 62.3 863 69.7 876.8 70.3C890.7 71 904.3 65 918.2 64.8C932 64.7 946 70.3 953 73.2L960 76L960 0L953 0C946 0 932 0 918.2 0C904.3 0 890.7 0 876.8 0C863 0 849 0 835 0C821 0 807 0 793 0C779 0 765 0 751.2 0C737.3 0 723.7 0 709.8 0C696 0 682 0 668 0C654 0 640 0 626 0C612 0 598 0 584.2 0C570.3 0 556.7 0 542.8 0C529 0 515 0 501 0C487 0 473 0 459 0C445 0 431 0 417.2 0C403.3 0 389.7 0 375.8 0C362 0 348 0 334 0C320 0 306 0 292 0C278 0 264 0 250.2 0C236.3 0 222.7 0 208.8 0C195 0 181 0 167 0C153 0 139 0 125 0C111 0 97 0 83.2 0C69.3 0 55.7 0 41.8 0C28 0 14 0 7 0L0 0Z" fill="#f45a33"></path><path d="M0 68L7 65.3C14 62.7 28 57.3 41.8 55.5C55.7 53.7 69.3 55.3 83.2 58.3C97 61.3 111 65.7 125 65.2C139 64.7 153 59.3 167 57.3C181 55.3 195 56.7 208.8 57C222.7 57.3 236.3 56.7 250.2 55.3C264 54 278 52 292 50.7C306 49.3 320 48.7 334 50C348 51.3 362 54.7 375.8 56.5C389.7 58.3 403.3 58.7 417.2 58.8C431 59 445 59 459 56.8C473 54.7 487 50.3 501 51.8C515 53.3 529 60.7 542.8 61.2C556.7 61.7 570.3 55.3 584.2 51.3C598 47.3 612 45.7 626 47.2C640 48.7 654 53.3 668 55.5C682 57.7 696 57.3 709.8 55.5C723.7 53.7 737.3 50.3 751.2 49C765 47.7 779 48.3 793 49.3C807 50.3 821 51.7 835 54C849 56.3 863 59.7 876.8 61.3C890.7 63 904.3 63 918.2 63.8C932 64.7 946 66.3 953 67.2L960 68L960 0L953 0C946 0 932 0 918.2 0C904.3 0 890.7 0 876.8 0C863 0 849 0 835 0C821 0 807 0 793 0C779 0 765 0 751.2 0C737.3 0 723.7 0 709.8 0C696 0 682 0 668 0C654 0 640 0 626 0C612 0 598 0 584.2 0C570.3 0 556.7 0 542.8 0C529 0 515 0 501 0C487 0 473 0 459 0C445 0 431 0 417.2 0C403.3 0 389.7 0 375.8 0C362 0 348 0 334 0C320 0 306 0 292 0C278 0 264 0 250.2 0C236.3 0 222.7 0 208.8 0C195 0 181 0 167 0C153 0 139 0 125 0C111 0 97 0 83.2 0C69.3 0 55.7 0 41.8 0C28 0 14 0 7 0L0 0Z" fill="#f2503c"></path><path d="M0 57L7 53.8C14 50.7 28 44.3 41.8 43.8C55.7 43.3 69.3 48.7 83.2 50.5C97 52.3 111 50.7 125 48.5C139 46.3 153 43.7 167 43C181 42.3 195 43.7 208.8 43.2C222.7 42.7 236.3 40.3 250.2 42C264 43.7 278 49.3 292 50.8C306 52.3 320 49.7 334 50.5C348 51.3 362 55.7 375.8 57.8C389.7 60 403.3 60 417.2 59.8C431 59.7 445 59.3 459 56.3C473 53.3 487 47.7 501 45.7C515 43.7 529 45.3 542.8 46.5C556.7 47.7 570.3 48.3 584.2 47.2C598 46 612 43 626 43.7C640 44.3 654 48.7 668 51C682 53.3 696 53.7 709.8 55C723.7 56.3 737.3 58.7 751.2 56.3C765 54 779 47 793 43C807 39 821 38 835 37.8C849 37.7 863 38.3 876.8 40.2C890.7 42 904.3 45 918.2 48.7C932 52.3 946 56.7 953 58.8L960 61L960 0L953 0C946 0 932 0 918.2 0C904.3 0 890.7 0 876.8 0C863 0 849 0 835 0C821 0 807 0 793 0C779 0 765 0 751.2 0C737.3 0 723.7 0 709.8 0C696 0 682 0 668 0C654 0 640 0 626 0C612 0 598 0 584.2 0C570.3 0 556.7 0 542.8 0C529 0 515 0 501 0C487 0 473 0 459 0C445 0 431 0 417.2 0C403.3 0 389.7 0 375.8 0C362 0 348 0 334 0C320 0 306 0 292 0C278 0 264 0 250.2 0C236.3 0 222.7 0 208.8 0C195 0 181 0 167 0C153 0 139 0 125 0C111 0 97 0 83.2 0C69.3 0 55.7 0 41.8 0C28 0 14 0 7 0L0 0Z" fill="#ee4743"></path><path d="M0 40L7 41.7C14 43.3 28 46.7 41.8 48.2C55.7 49.7 69.3 49.3 83.2 49.3C97 49.3 111 49.7 125 48.8C139 48 153 46 167 43.7C181 41.3 195 38.7 208.8 38.5C222.7 38.3 236.3 40.7 250.2 41.3C264 42 278 41 292 40C306 39 320 38 334 37.5C348 37 362 37 375.8 38.8C389.7 40.7 403.3 44.3 417.2 46.7C431 49 445 50 459 48.5C473 47 487 43 501 41C515 39 529 39 542.8 38.5C556.7 38 570.3 37 584.2 37C598 37 612 38 626 38.5C640 39 654 39 668 39.8C682 40.7 696 42.3 709.8 41.2C723.7 40 737.3 36 751.2 34.2C765 32.3 779 32.7 793 35.8C807 39 821 45 835 47.8C849 50.7 863 50.3 876.8 47.7C890.7 45 904.3 40 918.2 40.7C932 41.3 946 47.7 953 50.8L960 54L960 0L953 0C946 0 932 0 918.2 0C904.3 0 890.7 0 876.8 0C863 0 849 0 835 0C821 0 807 0 793 0C779 0 765 0 751.2 0C737.3 0 723.7 0 709.8 0C696 0 682 0 668 0C654 0 640 0 626 0C612 0 598 0 584.2 0C570.3 0 556.7 0 542.8 0C529 0 515 0 501 0C487 0 473 0 459 0C445 0 431 0 417.2 0C403.3 0 389.7 0 375.8 0C362 0 348 0 334 0C320 0 306 0 292 0C278 0 264 0 250.2 0C236.3 0 222.7 0 208.8 0C195 0 181 0 167 0C153 0 139 0 125 0C111 0 97 0 83.2 0C69.3 0 55.7 0 41.8 0C28 0 14 0 7 0L0 0Z" fill="#ea3f4b"></path><path d="M0 32L7 31.7C14 31.3 28 30.7 41.8 30.2C55.7 29.7 69.3 29.3 83.2 30C97 30.7 111 32.3 125 33.8C139 35.3 153 36.7 167 35.5C181 34.3 195 30.7 208.8 30.8C222.7 31 236.3 35 250.2 35.8C264 36.7 278 34.3 292 35.2C306 36 320 40 334 40.7C348 41.3 362 38.7 375.8 38C389.7 37.3 403.3 38.7 417.2 39.5C431 40.3 445 40.7 459 41.2C473 41.7 487 42.3 501 43C515 43.7 529 44.3 542.8 43.3C556.7 42.3 570.3 39.7 584.2 38.5C598 37.3 612 37.7 626 37.3C640 37 654 36 668 35.5C682 35 696 35 709.8 36.7C723.7 38.3 737.3 41.7 751.2 42C765 42.3 779 39.7 793 39C807 38.3 821 39.7 835 39.3C849 39 863 37 876.8 34.8C890.7 32.7 904.3 30.3 918.2 30.3C932 30.3 946 32.7 953 33.8L960 35L960 0L953 0C946 0 932 0 918.2 0C904.3 0 890.7 0 876.8 0C863 0 849 0 835 0C821 0 807 0 793 0C779 0 765 0 751.2 0C737.3 0 723.7 0 709.8 0C696 0 682 0 668 0C654 0 640 0 626 0C612 0 598 0 584.2 0C570.3 0 556.7 0 542.8 0C529 0 515 0 501 0C487 0 473 0 459 0C445 0 431 0 417.2 0C403.3 0 389.7 0 375.8 0C362 0 348 0 334 0C320 0 306 0 292 0C278 0 264 0 250.2 0C236.3 0 222.7 0 208.8 0C195 0 181 0 167 0C153 0 139 0 125 0C111 0 97 0 83.2 0C69.3 0 55.7 0 41.8 0C28 0 14 0 7 0L0 0Z" fill="#e43751"></path><path d="M0 34L7 34.3C14 34.7 28 35.3 41.8 35C55.7 34.7 69.3 33.3 83.2 33.2C97 33 111 34 125 32.8C139 31.7 153 28.3 167 27.5C181 26.7 195 28.3 208.8 30.3C222.7 32.3 236.3 34.7 250.2 33.3C264 32 278 27 292 27.2C306 27.3 320 32.7 334 33.5C348 34.3 362 30.7 375.8 30.2C389.7 29.7 403.3 32.3 417.2 33.7C431 35 445 35 459 35.2C473 35.3 487 35.7 501 34.3C515 33 529 30 542.8 28.5C556.7 27 570.3 27 584.2 26.8C598 26.7 612 26.3 626 27.3C640 28.3 654 30.7 668 32C682 33.3 696 33.7 709.8 33.8C723.7 34 737.3 34 751.2 32C765 30 779 26 793 25.2C807 24.3 821 26.7 835 26.8C849 27 863 25 876.8 25C890.7 25 904.3 27 918.2 29.3C932 31.7 946 34.3 953 35.7L960 37L960 0L953 0C946 0 932 0 918.2 0C904.3 0 890.7 0 876.8 0C863 0 849 0 835 0C821 0 807 0 793 0C779 0 765 0 751.2 0C737.3 0 723.7 0 709.8 0C696 0 682 0 668 0C654 0 640 0 626 0C612 0 598 0 584.2 0C570.3 0 556.7 0 542.8 0C529 0 515 0 501 0C487 0 473 0 459 0C445 0 431 0 417.2 0C403.3 0 389.7 0 375.8 0C362 0 348 0 334 0C320 0 306 0 292 0C278 0 264 0 250.2 0C236.3 0 222.7 0 208.8 0C195 0 181 0 167 0C153 0 139 0 125 0C111 0 97 0 83.2 0C69.3 0 55.7 0 41.8 0C28 0 14 0 7 0L0 0Z" fill="#de3058"></path><path d="M0 18L7 19.2C14 20.3 28 22.7 41.8 23.2C55.7 23.7 69.3 22.3 83.2 22.8C97 23.3 111 25.7 125 25.8C139 26 153 24 167 23.8C181 23.7 195 25.3 208.8 25.8C222.7 26.3 236.3 25.7 250.2 23.8C264 22 278 19 292 18C306 17 320 18 334 20C348 22 362 25 375.8 25.2C389.7 25.3 403.3 22.7 417.2 21.5C431 20.3 445 20.7 459 21C473 21.3 487 21.7 501 22.7C515 23.7 529 25.3 542.8 26.7C556.7 28 570.3 29 584.2 27.8C598 26.7 612 23.3 626 23.2C640 23 654 26 668 27.3C682 28.7 696 28.3 709.8 27C723.7 25.7 737.3 23.3 751.2 22.8C765 22.3 779 23.7 793 23.3C807 23 821 21 835 19.8C849 18.7 863 18.3 876.8 19.2C890.7 20 904.3 22 918.2 23.8C932 25.7 946 27.3 953 28.2L960 29L960 0L953 0C946 0 932 0 918.2 0C904.3 0 890.7 0 876.8 0C863 0 849 0 835 0C821 0 807 0 793 0C779 0 765 0 751.2 0C737.3 0 723.7 0 709.8 0C696 0 682 0 668 0C654 0 640 0 626 0C612 0 598 0 584.2 0C570.3 0 556.7 0 542.8 0C529 0 515 0 501 0C487 0 473 0 459 0C445 0 431 0 417.2 0C403.3 0 389.7 0 375.8 0C362 0 348 0 334 0C320 0 306 0 292 0C278 0 264 0 250.2 0C236.3 0 222.7 0 208.8 0C195 0 181 0 167 0C153 0 139 0 125 0C111 0 97 0 83.2 0C69.3 0 55.7 0 41.8 0C28 0 14 0 7 0L0 0Z" fill="#d72a5e"></path><path d="M0 17L7 16.3C14 15.7 28 14.3 41.8 13.3C55.7 12.3 69.3 11.7 83.2 11.5C97 11.3 111 11.7 125 11.7C139 11.7 153 11.3 167 12.8C181 14.3 195 17.7 208.8 18.2C222.7 18.7 236.3 16.3 250.2 15.8C264 15.3 278 16.7 292 17C306 17.3 320 16.7 334 16.5C348 16.3 362 16.7 375.8 16.5C389.7 16.3 403.3 15.7 417.2 14.8C431 14 445 13 459 13.5C473 14 487 16 501 16.2C515 16.3 529 14.7 542.8 15C556.7 15.3 570.3 17.7 584.2 18.7C598 19.7 612 19.3 626 18.3C640 17.3 654 15.7 668 16.2C682 16.7 696 19.3 709.8 19.5C723.7 19.7 737.3 17.3 751.2 16.7C765 16 779 17 793 16.3C807 15.7 821 13.3 835 13C849 12.7 863 14.3 876.8 14.3C890.7 14.3 904.3 12.7 918.2 12.3C932 12 946 13 953 13.5L960 14L960 0L953 0C946 0 932 0 918.2 0C904.3 0 890.7 0 876.8 0C863 0 849 0 835 0C821 0 807 0 793 0C779 0 765 0 751.2 0C737.3 0 723.7 0 709.8 0C696 0 682 0 668 0C654 0 640 0 626 0C612 0 598 0 584.2 0C570.3 0 556.7 0 542.8 0C529 0 515 0 501 0C487 0 473 0 459 0C445 0 431 0 417.2 0C403.3 0 389.7 0 375.8 0C362 0 348 0 334 0C320 0 306 0 292 0C278 0 264 0 250.2 0C236.3 0 222.7 0 208.8 0C195 0 181 0 167 0C153 0 139 0 125 0C111 0 97 0 83.2 0C69.3 0 55.7 0 41.8 0C28 0 14 0 7 0L0 0Z" fill="#cf2663"></path><path d="M0 6L7 6C14 6 28 6 41.8 6.7C55.7 7.3 69.3 8.7 83.2 8.7C97 8.7 111 7.3 125 7.7C139 8 153 10 167 10C181 10 195 8 208.8 6.8C222.7 5.7 236.3 5.3 250.2 6.2C264 7 278 9 292 9.7C306 10.3 320 9.7 334 9.2C348 8.7 362 8.3 375.8 9C389.7 9.7 403.3 11.3 417.2 11.5C431 11.7 445 10.3 459 10.3C473 10.3 487 11.7 501 12.3C515 13 529 13 542.8 12.3C556.7 11.7 570.3 10.3 584.2 10C598 9.7 612 10.3 626 10.7C640 11 654 11 668 10.2C682 9.3 696 7.7 709.8 7C723.7 6.3 737.3 6.7 751.2 7.3C765 8 779 9 793 9.7C807 10.3 821 10.7 835 10.2C849 9.7 863 8.3 876.8 8.5C890.7 8.7 904.3 10.3 918.2 11C932 11.7 946 11.3 953 11.2L960 11L960 0L953 0C946 0 932 0 918.2 0C904.3 0 890.7 0 876.8 0C863 0 849 0 835 0C821 0 807 0 793 0C779 0 765 0 751.2 0C737.3 0 723.7 0 709.8 0C696 0 682 0 668 0C654 0 640 0 626 0C612 0 598 0 584.2 0C570.3 0 556.7 0 542.8 0C529 0 515 0 501 0C487 0 473 0 459 0C445 0 431 0 417.2 0C403.3 0 389.7 0 375.8 0C362 0 348 0 334 0C320 0 306 0 292 0C278 0 264 0 250.2 0C236.3 0 222.7 0 208.8 0C195 0 181 0 167 0C153 0 139 0 125 0C111 0 97 0 83.2 0C69.3 0 55.7 0 41.8 0C28 0 14 0 7 0L0 0Z" fill="#c62368"></path></svg>