<svg id="visual" viewBox="0 0 960 540" width="960" height="540" xmlns="http://www.w3.org/2000/svg" xmlns:xlink="http://www.w3.org/1999/xlink" version="1.1"><path d="M0 233L14.5 223.2C29 213.3 58 193.7 87.2 182C116.3 170.3 145.7 166.7 174.8 156.7C204 146.7 233 130.3 262 139.3C291 148.3 320 182.7 349 184.5C378 186.3 407 155.7 436.2 134C465.3 112.3 494.7 99.7 523.8 92.5C553 85.3 582 83.7 611 101.7C640 119.7 669 157.3 698 156.5C727 155.7 756 116.3 785.2 106.5C814.3 96.7 843.7 116.3 872.8 129.8C902 143.3 931 150.7 945.5 154.3L960 158L960 0L945.5 0C931 0 902 0 872.8 0C843.7 0 814.3 0 785.2 0C756 0 727 0 698 0C669 0 640 0 611 0C582 0 553 0 523.8 0C494.7 0 465.3 0 436.2 0C407 0 378 0 349 0C320 0 291 0 262 0C233 0 204 0 174.8 0C145.7 0 116.3 0 87.2 0C58 0 29 0 14.5 0L0 0Z" fill="#000000"></path><path d="M0 303L14.5 294C29 285 58 267 87.2 253.5C116.3 240 145.7 231 174.8 222C204 213 233 204 262 218.5C291 233 320 271 349 272C378 273 407 237 436.2 215.3C465.3 193.7 494.7 186.3 523.8 180C553 173.7 582 168.3 611 182.8C640 197.3 669 231.7 698 229.8C727 228 756 190 785.2 176.5C814.3 163 843.7 174 872.8 184C902 194 931 203 945.5 207.5L960 212L960 156L945.5 152.3C931 148.7 902 141.3 872.8 127.8C843.7 114.3 814.3 94.7 785.2 104.5C756 114.3 727 153.7 698 154.5C669 155.3 640 117.7 611 99.7C582 81.7 553 83.3 523.8 90.5C494.7 97.7 465.3 110.3 436.2 132C407 153.7 378 184.3 349 182.5C320 180.7 291 146.3 262 137.3C233 128.3 204 144.7 174.8 154.7C145.7 164.7 116.3 168.3 87.2 180C58 191.7 29 211.3 14.5 221.2L0 231Z" fill="#640000"></path><path d="M0 374L14.5 370.3C29 366.7 58 359.3 87.2 342.2C116.3 325 145.7 298 174.8 282.7C204 267.3 233 263.7 262 279C291 294.3 320 328.7 349 335.8C378 343 407 323 436.2 303.2C465.3 283.3 494.7 263.7 523.8 247.5C553 231.3 582 218.7 611 239.3C640 260 669 314 698 312.2C727 310.3 756 252.7 785.2 237.3C814.3 222 843.7 249 872.8 266.2C902 283.3 931 290.7 945.5 294.3L960 298L960 210L945.5 205.5C931 201 902 192 872.8 182C843.7 172 814.3 161 785.2 174.5C756 188 727 226 698 227.8C669 229.7 640 195.3 611 180.8C582 166.3 553 171.7 523.8 178C494.7 184.3 465.3 191.7 436.2 213.3C407 235 378 271 349 270C320 269 291 231 262 216.5C233 202 204 211 174.8 220C145.7 229 116.3 238 87.2 251.5C58 265 29 283 14.5 292L0 301Z" fill="#922200"></path><path d="M0 433L14.5 438.3C29 443.7 58 454.3 87.2 451.7C116.3 449 145.7 433 174.8 414.2C204 395.3 233 373.7 262 380C291 386.3 320 420.7 349 427C378 433.3 407 411.7 436.2 398.2C465.3 384.7 494.7 379.3 523.8 361.3C553 343.3 582 312.7 611 327.8C640 343 669 404 698 408.5C727 413 756 361 785.2 352C814.3 343 843.7 377 872.8 395.8C902 414.7 931 418.3 945.5 420.2L960 422L960 296L945.5 292.3C931 288.7 902 281.3 872.8 264.2C843.7 247 814.3 220 785.2 235.3C756 250.7 727 308.3 698 310.2C669 312 640 258 611 237.3C582 216.7 553 229.3 523.8 245.5C494.7 261.7 465.3 281.3 436.2 301.2C407 321 378 341 349 333.8C320 326.7 291 292.3 262 277C233 261.7 204 265.3 174.8 280.7C145.7 296 116.3 323 87.2 340.2C58 357.3 29 364.7 14.5 368.3L0 372Z" fill="#c54c07"></path><path d="M0 541L14.5 541C29 541 58 541 87.2 541C116.3 541 145.7 541 174.8 541C204 541 233 541 262 541C291 541 320 541 349 541C378 541 407 541 436.2 541C465.3 541 494.7 541 523.8 541C553 541 582 541 611 541C640 541 669 541 698 541C727 541 756 541 785.2 541C814.3 541 843.7 541 872.8 541C902 541 931 541 945.5 541L960 541L960 420L945.5 418.2C931 416.3 902 412.7 872.8 393.8C843.7 375 814.3 341 785.2 350C756 359 727 411 698 406.5C669 402 640 341 611 325.8C582 310.7 553 341.3 523.8 359.3C494.7 377.3 465.3 382.7 436.2 396.2C407 409.7 378 431.3 349 425C320 418.7 291 384.3 262 378C233 371.7 204 393.3 174.8 412.2C145.7 431 116.3 447 87.2 449.7C58 452.3 29 441.7 14.5 436.3L0 431Z" fill="#f7770f"></path></svg>