<svg id="visual" viewBox="0 0 960 540" width="960" height="540" xmlns="http://www.w3.org/2000/svg" xmlns:xlink="http://www.w3.org/1999/xlink" version="1.1"><rect x="0" y="0" width="960" height="540" fill="#000000"></rect><g transform="translate(486.3570443041265 260.0741801902311)"><path d="M108.7 -177.7C146.3 -166.5 186.2 -148.5 201.9 -117.7C217.7 -87 209.3 -43.5 210.6 0.7C211.9 45 222.9 90 210.6 126.8C198.4 163.6 162.9 192.2 124 203.7C85 215.2 42.5 209.6 4.7 201.5C-33.2 193.4 -66.3 182.9 -105.2 171.3C-144 159.7 -188.5 147.1 -210.9 118.4C-233.3 89.7 -233.7 44.8 -219.2 8.4C-204.7 -28.1 -175.4 -56.3 -151.1 -81.7C-126.8 -107.1 -107.4 -129.7 -83 -148.7C-58.7 -167.6 -29.3 -182.8 3.1 -188.1C35.5 -193.5 71 -189 108.7 -177.7" fill="#BB004B"></path></g></svg>